<?xml version="1.0" encoding="utf-8"?>
<!DOCTYPE svg PUBLIC "-//W3C//DTD SVG 1.1//EN" "http://www.w3.org/Graphics/SVG/1.1/DTD/svg11.dtd">
<svg class="marks" width="602" height="514" viewBox="0 0 602 514" version="1.1" xmlns="http://www.w3.org/2000/svg" xmlns:xlink="http://www.w3.org/1999/xlink"><rect width="602" height="514" style="fill: white;"></rect><defs><clipPath id="clip1"><rect x="0" y="0" width="450" height="450"></rect></clipPath><clipPath id="clip2"><rect x="0" y="0" width="450" height="450"></rect></clipPath><clipPath id="clip3"><rect x="0" y="0" width="450" height="450"></rect></clipPath><clipPath id="clip4"><rect x="0" y="0" width="450" height="450"></rect></clipPath><clipPath id="clip5"><rect x="0" y="0" width="450" height="450"></rect></clipPath><clipPath id="clip6"><rect x="0" y="0" width="450" height="450"></rect></clipPath><clipPath id="clip7"><rect x="0" y="0" width="450" height="450"></rect></clipPath><clipPath id="clip8"><rect x="0" y="0" width="450" height="450"></rect></clipPath><clipPath id="clip9"><rect x="0" y="0" width="450" height="450"></rect></clipPath><clipPath id="clip10"><rect x="0" y="0" width="450" height="450"></rect></clipPath><clipPath id="clip11"><rect x="0" y="0" width="450" height="450"></rect></clipPath><clipPath id="clip12"><rect x="0" y="0" width="450" height="450"></rect></clipPath><clipPath id="clip13"><rect x="0" y="0" width="450" height="450"></rect></clipPath><clipPath id="clip14"><rect x="0" y="0" width="450" height="450"></rect></clipPath><clipPath id="clip15"><rect x="0" y="0" width="450" height="450"></rect></clipPath></defs><g transform="translate(54,27)"><g class="mark-group role-frame root"><g transform="translate(0,0)"><path class="background" d="M0.5,0.5h450v450h-450Z" style="fill: none; stroke: #ddd;"></path><g><g class="mark-group role-axis"><g transform="translate(0.5,450.5)"><path class="background" d="M0,0h0v0h0Z" style="pointer-events: none; fill: none;"></path><g><g class="mark-rule role-axis-grid" style="pointer-events: none;"><line transform="translate(17,-450)" x2="0" y2="450" style="fill: none; stroke: #ddd; stroke-width: 1; opacity: 1;"></line><line transform="translate(65,-450)" x2="0" y2="450" style="fill: none; stroke: #ddd; stroke-width: 1; opacity: 1;"></line><line transform="translate(115,-450)" x2="0" y2="450" style="fill: none; stroke: #ddd; stroke-width: 1; opacity: 1;"></line><line transform="translate(165,-450)" x2="0" y2="450" style="fill: none; stroke: #ddd; stroke-width: 1; opacity: 1;"></line><line transform="translate(215,-450)" x2="0" y2="450" style="fill: none; stroke: #ddd; stroke-width: 1; opacity: 1;"></line><line transform="translate(265,-450)" x2="0" y2="450" style="fill: none; stroke: #ddd; stroke-width: 1; opacity: 1;"></line><line transform="translate(315,-450)" x2="0" y2="450" style="fill: none; stroke: #ddd; stroke-width: 1; opacity: 1;"></line><line transform="translate(365,-450)" x2="0" y2="450" style="fill: none; stroke: #ddd; stroke-width: 1; opacity: 1;"></line><line transform="translate(415,-450)" x2="0" y2="450" style="fill: none; stroke: #ddd; stroke-width: 1; opacity: 1;"></line></g></g><path class="foreground" d="" style="pointer-events: none; display: none; fill: none;"></path></g></g><g class="mark-group role-axis"><g transform="translate(0.5,0.5)"><path class="background" d="M0,0h0v0h0Z" style="pointer-events: none; fill: none;"></path><g><g class="mark-rule role-axis-grid" style="pointer-events: none;"><line transform="translate(0,450)" x2="450" y2="0" style="fill: none; stroke: #ddd; stroke-width: 1; opacity: 1;"></line><line transform="translate(0,400)" x2="450" y2="0" style="fill: none; stroke: #ddd; stroke-width: 1; opacity: 1;"></line><line transform="translate(0,350)" x2="450" y2="0" style="fill: none; stroke: #ddd; stroke-width: 1; opacity: 1;"></line><line transform="translate(0,300)" x2="450" y2="0" style="fill: none; stroke: #ddd; stroke-width: 1; opacity: 1;"></line><line transform="translate(0,250)" x2="450" y2="0" style="fill: none; stroke: #ddd; stroke-width: 1; opacity: 1;"></line><line transform="translate(0,200)" x2="450" y2="0" style="fill: none; stroke: #ddd; stroke-width: 1; opacity: 1;"></line><line transform="translate(0,150)" x2="450" y2="0" style="fill: none; stroke: #ddd; stroke-width: 1; opacity: 1;"></line><line transform="translate(0,100)" x2="450" y2="0" style="fill: none; stroke: #ddd; stroke-width: 1; opacity: 1;"></line><line transform="translate(0,50)" x2="450" y2="0" style="fill: none; stroke: #ddd; stroke-width: 1; opacity: 1;"></line><line transform="translate(0,0)" x2="450" y2="0" style="fill: none; stroke: #ddd; stroke-width: 1; opacity: 1;"></line></g></g><path class="foreground" d="" style="pointer-events: none; display: none; fill: none;"></path></g></g><g class="mark-group role-axis"><g transform="translate(0.5,450.5)"><path class="background" d="M0,0h0v0h0Z" style="pointer-events: none; fill: none;"></path><g><g class="mark-rule role-axis-tick" style="pointer-events: none;"><line transform="translate(17,0)" x2="0" y2="5" style="fill: none; stroke: #888; stroke-width: 1; opacity: 1;"></line><line transform="translate(65,0)" x2="0" y2="5" style="fill: none; stroke: #888; stroke-width: 1; opacity: 1;"></line><line transform="translate(115,0)" x2="0" y2="5" style="fill: none; stroke: #888; stroke-width: 1; opacity: 1;"></line><line transform="translate(165,0)" x2="0" y2="5" style="fill: none; stroke: #888; stroke-width: 1; opacity: 1;"></line><line transform="translate(215,0)" x2="0" y2="5" style="fill: none; stroke: #888; stroke-width: 1; opacity: 1;"></line><line transform="translate(265,0)" x2="0" y2="5" style="fill: none; stroke: #888; stroke-width: 1; opacity: 1;"></line><line transform="translate(315,0)" x2="0" y2="5" style="fill: none; stroke: #888; stroke-width: 1; opacity: 1;"></line><line transform="translate(365,0)" x2="0" y2="5" style="fill: none; stroke: #888; stroke-width: 1; opacity: 1;"></line><line transform="translate(415,0)" x2="0" y2="5" style="fill: none; stroke: #888; stroke-width: 1; opacity: 1;"></line></g><g class="mark-text role-axis-label" style="pointer-events: none;"><text text-anchor="middle" transform="translate(16.666666666666664,15)" style="font-family: sans-serif; font-size: 10px; fill: #000; opacity: 1;">Mar 08</text><text text-anchor="middle" transform="translate(64.58333333333333,15)" style="font-family: sans-serif; font-size: 10px; fill: #000; opacity: 1;">Mon 09</text><text text-anchor="middle" transform="translate(114.58333333333334,15)" style="font-family: sans-serif; font-size: 10px; fill: #000; opacity: 1;">Tue 10</text><text text-anchor="middle" transform="translate(164.58333333333334,15)" style="font-family: sans-serif; font-size: 10px; fill: #000; opacity: 1;">Wed 11</text><text text-anchor="middle" transform="translate(214.58333333333334,15)" style="font-family: sans-serif; font-size: 10px; fill: #000; opacity: 1;">Thu 12</text><text text-anchor="middle" transform="translate(264.5833333333333,15)" style="font-family: sans-serif; font-size: 10px; fill: #000; opacity: 1;">Fri 13</text><text text-anchor="middle" transform="translate(314.5833333333333,15)" style="font-family: sans-serif; font-size: 10px; fill: #000; opacity: 1;">Sat 14</text><text text-anchor="middle" transform="translate(364.58333333333337,15)" style="font-family: sans-serif; font-size: 10px; fill: #000; opacity: 1;">Mar 15</text><text text-anchor="middle" transform="translate(414.5833333333333,15)" style="font-family: sans-serif; font-size: 10px; fill: #000; opacity: 1;">Mon 16</text></g><g class="mark-rule role-axis-domain" style="pointer-events: none;"><line transform="translate(0,0)" x2="450" y2="0" style="fill: none; stroke: #888; stroke-width: 1; opacity: 1;"></line></g><g class="mark-text role-axis-title" style="pointer-events: none;"><text text-anchor="middle" transform="translate(225,30)" style="font-family: sans-serif; font-size: 11px; font-weight: bold; fill: #000; opacity: 1;">Date</text></g></g><path class="foreground" d="" style="pointer-events: none; display: none; fill: none;"></path></g></g><g class="mark-group role-axis"><g transform="translate(0.5,0.5)"><path class="background" d="M0,0h0v0h0Z" style="pointer-events: none; fill: none;"></path><g><g class="mark-rule role-axis-tick" style="pointer-events: none;"><line transform="translate(0,450)" x2="-5" y2="0" style="fill: none; stroke: #888; stroke-width: 1; opacity: 1;"></line><line transform="translate(0,400)" x2="-5" y2="0" style="fill: none; stroke: #888; stroke-width: 1; opacity: 1;"></line><line transform="translate(0,350)" x2="-5" y2="0" style="fill: none; stroke: #888; stroke-width: 1; opacity: 1;"></line><line transform="translate(0,300)" x2="-5" y2="0" style="fill: none; stroke: #888; stroke-width: 1; opacity: 1;"></line><line transform="translate(0,250)" x2="-5" y2="0" style="fill: none; stroke: #888; stroke-width: 1; opacity: 1;"></line><line transform="translate(0,200)" x2="-5" y2="0" style="fill: none; stroke: #888; stroke-width: 1; opacity: 1;"></line><line transform="translate(0,150)" x2="-5" y2="0" style="fill: none; stroke: #888; stroke-width: 1; opacity: 1;"></line><line transform="translate(0,100)" x2="-5" y2="0" style="fill: none; stroke: #888; stroke-width: 1; opacity: 1;"></line><line transform="translate(0,50)" x2="-5" y2="0" style="fill: none; stroke: #888; stroke-width: 1; opacity: 1;"></line><line transform="translate(0,0)" x2="-5" y2="0" style="fill: none; stroke: #888; stroke-width: 1; opacity: 1;"></line></g><g class="mark-text role-axis-label" style="pointer-events: none;"><text text-anchor="end" transform="translate(-7,453)" style="font-family: sans-serif; font-size: 10px; fill: #000; opacity: 1;">0</text><text text-anchor="end" transform="translate(-7,403)" style="font-family: sans-serif; font-size: 10px; fill: #000; opacity: 1;">200</text><text text-anchor="end" transform="translate(-7,353)" style="font-family: sans-serif; font-size: 10px; fill: #000; opacity: 1;">400</text><text text-anchor="end" transform="translate(-7,303.00000000000006)" style="font-family: sans-serif; font-size: 10px; fill: #000; opacity: 1;">600</text><text text-anchor="end" transform="translate(-7,253)" style="font-family: sans-serif; font-size: 10px; fill: #000; opacity: 1;">800</text><text text-anchor="end" transform="translate(-7,203)" style="font-family: sans-serif; font-size: 10px; fill: #000; opacity: 1;">1,000</text><text text-anchor="end" transform="translate(-7,153.00000000000003)" style="font-family: sans-serif; font-size: 10px; fill: #000; opacity: 1;">1,200</text><text text-anchor="end" transform="translate(-7,103)" style="font-family: sans-serif; font-size: 10px; fill: #000; opacity: 1;">1,400</text><text text-anchor="end" transform="translate(-7,53.00000000000002)" style="font-family: sans-serif; font-size: 10px; fill: #000; opacity: 1;">1,600</text><text text-anchor="end" transform="translate(-7,3)" style="font-family: sans-serif; font-size: 10px; fill: #000; opacity: 1;">1,800</text></g><g class="mark-rule role-axis-domain" style="pointer-events: none;"><line transform="translate(0,450)" x2="0" y2="-450" style="fill: none; stroke: #888; stroke-width: 1; opacity: 1;"></line></g><g class="mark-text role-axis-title" style="pointer-events: none;"><text text-anchor="middle" transform="translate(-38,225) rotate(-90) translate(0,-2)" style="font-family: sans-serif; font-size: 11px; font-weight: bold; fill: #000; opacity: 1;">Positive cases</text></g></g><path class="foreground" d="" style="pointer-events: none; display: none; fill: none;"></path></g></g><g class="mark-symbol role-mark layer_0_marks"><path transform="translate(450,329.25)" d="M7.795293361408618,0A7.795293361408618,7.795293361408618,0,1,1,-7.795293361408618,0A7.795293361408618,7.795293361408618,0,1,1,7.795293361408618,0" style="fill: #4c78a8; stroke-width: 2; opacity: 0.7;"></path><path transform="translate(450,410)" d="M2.9646861702005345,0A2.9646861702005345,2.9646861702005345,0,1,1,-2.9646861702005345,0A2.9646861702005345,2.9646861702005345,0,1,1,2.9646861702005345,0" style="fill: #f58518; stroke-width: 2; opacity: 0.7;"></path><path transform="translate(450,403.5)" d="M2.852864436974748,0A2.852864436974748,2.852864436974748,0,1,1,-2.852864436974748,0A2.852864436974748,2.852864436974748,0,1,1,2.852864436974748,0" style="fill: #e45756; stroke-width: 2; opacity: 0.7;"></path><path transform="translate(450,410)" d="M3.2927409859241026,0A3.2927409859241026,3.2927409859241026,0,1,1,-3.2927409859241026,0A3.2927409859241026,3.2927409859241026,0,1,1,3.2927409859241026,0" style="fill: #72b7b2; stroke-width: 2; opacity: 0.7;"></path><path transform="translate(450,395.5)" d="M3.5657004818573133,0A3.5657004818573133,3.5657004818573133,0,1,1,-3.5657004818573133,0A3.5657004818573133,3.5657004818573133,0,1,1,3.5657004818573133,0" style="fill: #54a24b; stroke-width: 2; opacity: 0.7;"></path><path transform="translate(450,442)" d="M3.106365633395744,0A3.106365633395744,3.106365633395744,0,1,1,-3.106365633395744,0A3.106365633395744,3.106365633395744,0,1,1,3.106365633395744,0" style="fill: #eeca3b; stroke-width: 2; opacity: 0.7;"></path><path transform="translate(450,435)" d="M4.109115599582473,0A4.109115599582473,4.109115599582473,0,1,1,-4.109115599582473,0A4.109115599582473,4.109115599582473,0,1,1,4.109115599582473,0" style="fill: #b279a2; stroke-width: 2; opacity: 0.7;"></path><path transform="translate(450,444.25)" d="M3.032183608214713,0A3.032183608214713,3.032183608214713,0,1,1,-3.032183608214713,0A3.032183608214713,3.032183608214713,0,1,1,3.032183608214713,0" style="fill: #ff9da6; stroke-width: 2; opacity: 0.7;"></path><path transform="translate(450,25.00000000000001)" d="M7.217039277615634,0A7.217039277615634,7.217039277615634,0,1,1,-7.217039277615634,0A7.217039277615634,7.217039277615634,0,1,1,7.217039277615634,0" style="fill: #9d755d; stroke-width: 2; opacity: 0.7;"></path><path transform="translate(450,438.25)" d="M2.5787298868957014,0A2.5787298868957014,2.5787298868957014,0,1,1,-2.5787298868957014,0A2.5787298868957014,2.5787298868957014,0,1,1,2.5787298868957014,0" style="fill: #bab0ac; stroke-width: 2; opacity: 0.7;"></path><path transform="translate(450,426)" d="M2.65469265269068,0A2.65469265269068,2.65469265269068,0,1,1,-2.65469265269068,0A2.65469265269068,2.65469265269068,0,1,1,2.65469265269068,0" style="fill: #4c78a8; stroke-width: 2; opacity: 0.7;"></path><path transform="translate(450,434)" d="M3.0274122699193624,0A3.0274122699193624,3.0274122699193624,0,1,1,-3.0274122699193624,0A3.0274122699193624,3.0274122699193624,0,1,1,3.0274122699193624,0" style="fill: #f58518; stroke-width: 2; opacity: 0.7;"></path><path transform="translate(450,433.25)" d="M2.7258910726580394,0A2.7258910726580394,2.7258910726580394,0,1,1,-2.7258910726580394,0A2.7258910726580394,2.7258910726580394,0,1,1,2.7258910726580394,0" style="fill: #e45756; stroke-width: 2; opacity: 0.7;"></path><path transform="translate(450,224)" d="M9.5,0A9.5,9.5,0,1,1,-9.5,0A9.5,9.5,0,1,1,9.5,0" style="fill: #72b7b2; stroke-width: 2; opacity: 0.7;"></path><path transform="translate(450,432)" d="M2.8325228981041755,0A2.8325228981041755,2.8325228981041755,0,1,1,-2.8325228981041755,0A2.8325228981041755,2.8325228981041755,0,1,1,2.8325228981041755,0" style="fill: #54a24b; stroke-width: 2; opacity: 0.7;"></path><path transform="translate(400,366.25)" d="M7.75298922370793,0A7.75298922370793,7.75298922370793,0,1,1,-7.75298922370793,0A7.75298922370793,7.75298922370793,0,1,1,7.75298922370793,0" style="fill: #4c78a8; stroke-width: 2; opacity: 0.7;"></path><path transform="translate(400,417.25)" d="M2.3407042452919162,0A2.3407042452919162,2.3407042452919162,0,1,1,-2.3407042452919162,0A2.3407042452919162,2.3407042452919162,0,1,1,2.3407042452919162,0" style="fill: #f58518; stroke-width: 2; opacity: 0.7;"></path><path transform="translate(400,414.75)" d="M3.1110158839533164,0A3.1110158839533164,3.1110158839533164,0,1,1,-3.1110158839533164,0A3.1110158839533164,3.1110158839533164,0,1,1,3.1110158839533164,0" style="fill: #e45756; stroke-width: 2; opacity: 0.7;"></path><path transform="translate(400,426.75)" d="M2.721910699048745,0A2.721910699048745,2.721910699048745,0,1,1,-2.721910699048745,0A2.721910699048745,2.721910699048745,0,1,1,2.721910699048745,0" style="fill: #72b7b2; stroke-width: 2; opacity: 0.7;"></path><path transform="translate(400,445.75)" d="M2.3759508748429177,0A2.3759508748429177,2.3759508748429177,0,1,1,-2.3759508748429177,0A2.3759508748429177,2.3759508748429177,0,1,1,2.3759508748429177,0" style="fill: #eeca3b; stroke-width: 2; opacity: 0.7;"></path><path transform="translate(400,436.5)" d="M3.6990248335047915,0A3.6990248335047915,3.6990248335047915,0,1,1,-3.6990248335047915,0A3.6990248335047915,3.6990248335047915,0,1,1,3.6990248335047915,0" style="fill: #b279a2; stroke-width: 2; opacity: 0.7;"></path><path transform="translate(400,212.5)" d="M6.173047813002731,0A6.173047813002731,6.173047813002731,0,1,1,-6.173047813002731,0A6.173047813002731,6.173047813002731,0,1,1,6.173047813002731,0" style="fill: #9d755d; stroke-width: 2; opacity: 0.7;"></path><path transform="translate(400,440.25)" d="M2.404678018683242,0A2.404678018683242,2.404678018683242,0,1,1,-2.404678018683242,0A2.404678018683242,2.404678018683242,0,1,1,2.404678018683242,0" style="fill: #bab0ac; stroke-width: 2; opacity: 0.7;"></path><path transform="translate(400,431)" d="M2.322102327272535,0A2.322102327272535,2.322102327272535,0,1,1,-2.322102327272535,0A2.322102327272535,2.322102327272535,0,1,1,2.322102327272535,0" style="fill: #4c78a8; stroke-width: 2; opacity: 0.7;"></path><path transform="translate(400,257.75)" d="M8.594831916445637,0A8.594831916445637,8.594831916445637,0,1,1,-8.594831916445637,0A8.594831916445637,8.594831916445637,0,1,1,8.594831916445637,0" style="fill: #72b7b2; stroke-width: 2; opacity: 0.7;"></path><path transform="translate(350,376.75)" d="M2.956140629183573,0A2.956140629183573,2.956140629183573,0,1,1,-2.956140629183573,0A2.956140629183573,2.956140629183573,0,1,1,2.956140629183573,0" style="fill: #4c78a8; stroke-width: 2; opacity: 0.7;"></path><path transform="translate(350,417.25)" d="M2.3407042452919162,0A2.3407042452919162,2.3407042452919162,0,1,1,-2.3407042452919162,0A2.3407042452919162,2.3407042452919162,0,1,1,2.3407042452919162,0" style="fill: #f58518; stroke-width: 2; opacity: 0.7;"></path><path transform="translate(350,421)" d="M3.003441882693895,0A3.003441882693895,3.003441882693895,0,1,1,-3.003441882693895,0A3.003441882693895,3.003441882693895,0,1,1,3.003441882693895,0" style="fill: #e45756; stroke-width: 2; opacity: 0.7;"></path><path transform="translate(350,434)" d="M2.2621873464815976,0A2.2621873464815976,2.2621873464815976,0,1,1,-2.2621873464815976,0A2.2621873464815976,2.2621873464815976,0,1,1,2.2621873464815976,0" style="fill: #72b7b2; stroke-width: 2; opacity: 0.7;"></path><path transform="translate(350,441.25)" d="M3.2059868611652855,0A3.2059868611652855,3.2059868611652855,0,1,1,-3.2059868611652855,0A3.2059868611652855,3.2059868611652855,0,1,1,3.2059868611652855,0" style="fill: #b279a2; stroke-width: 2; opacity: 0.7;"></path><path transform="translate(350,267.75)" d="M6.173047813002731,0A6.173047813002731,6.173047813002731,0,1,1,-6.173047813002731,0A6.173047813002731,6.173047813002731,0,1,1,6.173047813002731,0" style="fill: #9d755d; stroke-width: 2; opacity: 0.7;"></path><path transform="translate(350,441)" d="M2.218633140691478,0A2.218633140691478,2.218633140691478,0,1,1,-2.218633140691478,0A2.218633140691478,2.218633140691478,0,1,1,2.218633140691478,0" style="fill: #bab0ac; stroke-width: 2; opacity: 0.7;"></path><path transform="translate(350,289.5)" d="M7.491257117813392,0A7.491257117813392,7.491257117813392,0,1,1,-7.491257117813392,0A7.491257117813392,7.491257117813392,0,1,1,7.491257117813392,0" style="fill: #72b7b2; stroke-width: 2; opacity: 0.7;"></path><path transform="translate(300,387)" d="M2.9055835051441923,0A2.9055835051441923,2.9055835051441923,0,1,1,-2.9055835051441923,0A2.9055835051441923,2.9055835051441923,0,1,1,2.9055835051441923,0" style="fill: #4c78a8; stroke-width: 2; opacity: 0.7;"></path><path transform="translate(300,424.75)" d="M2.425627694036182,0A2.425627694036182,2.425627694036182,0,1,1,-2.425627694036182,0A2.425627694036182,2.425627694036182,0,1,1,2.425627694036182,0" style="fill: #f58518; stroke-width: 2; opacity: 0.7;"></path><path transform="translate(300,430.75)" d="M2.368333186511605,0A2.368333186511605,2.368333186511605,0,1,1,-2.368333186511605,0A2.368333186511605,2.368333186511605,0,1,1,2.368333186511605,0" style="fill: #e45756; stroke-width: 2; opacity: 0.7;"></path><path transform="translate(300,444.75)" d="M2.504792778911885,0A2.504792778911885,2.504792778911885,0,1,1,-2.504792778911885,0A2.504792778911885,2.504792778911885,0,1,1,2.504792778911885,0" style="fill: #b279a2; stroke-width: 2; opacity: 0.7;"></path><path transform="translate(300,319)" d="M4.886143604853066,0A4.886143604853066,4.886143604853066,0,1,1,-4.886143604853066,0A4.886143604853066,4.886143604853066,0,1,1,4.886143604853066,0" style="fill: #9d755d; stroke-width: 2; opacity: 0.7;"></path><path transform="translate(300,308)" d="M6.890671891928746,0A6.890671891928746,6.890671891928746,0,1,1,-6.890671891928746,0A6.890671891928746,6.890671891928746,0,1,1,6.890671891928746,0" style="fill: #72b7b2; stroke-width: 2; opacity: 0.7;"></path><path transform="translate(250,399.5)" d="M2.8427118622927408,0A2.8427118622927408,2.8427118622927408,0,1,1,-2.8427118622927408,0A2.8427118622927408,2.8427118622927408,0,1,1,2.8427118622927408,0" style="fill: #4c78a8; stroke-width: 2; opacity: 0.7;"></path><path transform="translate(250,437.5)" d="M2.3267667491017,0A2.3267667491017,2.3267667491017,0,1,1,-2.3267667491017,0A2.3267667491017,2.3267667491017,0,1,1,2.3267667491017,0" style="fill: #e45756; stroke-width: 2; opacity: 0.7;"></path><path transform="translate(250,344.75)" d="M4.809356037366484,0A4.809356037366484,4.809356037366484,0,1,1,-4.809356037366484,0A4.809356037366484,4.809356037366484,0,1,1,4.809356037366484,0" style="fill: #9d755d; stroke-width: 2; opacity: 0.7;"></path><path transform="translate(250,335.75)" d="M5.894527539124628,0A5.894527539124628,5.894527539124628,0,1,1,-5.894527539124628,0A5.894527539124628,5.894527539124628,0,1,1,5.894527539124628,0" style="fill: #72b7b2; stroke-width: 2; opacity: 0.7;"></path><path transform="translate(200,399.5)" d="M2.8427118622927408,0A2.8427118622927408,2.8427118622927408,0,1,1,-2.8427118622927408,0A2.8427118622927408,2.8427118622927408,0,1,1,2.8427118622927408,0" style="fill: #4c78a8; stroke-width: 2; opacity: 0.7;"></path><path transform="translate(200,365.75)" d="M4.959557326409164,0A4.959557326409164,4.959557326409164,0,1,1,-4.959557326409164,0A4.959557326409164,4.959557326409164,0,1,1,4.959557326409164,0" style="fill: #72b7b2; stroke-width: 2; opacity: 0.7;"></path><path transform="translate(150,410.75)" d="M2.7849140805432993,0A2.7849140805432993,2.7849140805432993,0,1,1,-2.7849140805432993,0A2.7849140805432993,2.7849140805432993,0,1,1,2.7849140805432993,0" style="fill: #4c78a8; stroke-width: 2; opacity: 0.7;"></path><path transform="translate(150,383.25)" d="M4.2219051885886785,0A4.2219051885886785,4.2219051885886785,0,1,1,-4.2219051885886785,0A4.2219051885886785,4.2219051885886785,0,1,1,4.2219051885886785,0" style="fill: #72b7b2; stroke-width: 2; opacity: 0.7;"></path><path transform="translate(100,416.75)" d="M2.439000321705102,0A2.439000321705102,2.439000321705102,0,1,1,-2.439000321705102,0A2.439000321705102,2.439000321705102,0,1,1,2.439000321705102,0" style="fill: #4c78a8; stroke-width: 2; opacity: 0.7;"></path><path transform="translate(100,409.5)" d="M3.032183608214713,0A3.032183608214713,3.032183608214713,0,1,1,-3.032183608214713,0A3.032183608214713,3.032183608214713,0,1,1,3.032183608214713,0" style="fill: #72b7b2; stroke-width: 2; opacity: 0.7;"></path><path transform="translate(50,421.5)" d="M2.4106822178391853,0A2.4106822178391853,2.4106822178391853,0,1,1,-2.4106822178391853,0A2.4106822178391853,2.4106822178391853,0,1,1,2.4106822178391853,0" style="fill: #4c78a8; stroke-width: 2; opacity: 0.7;"></path><path transform="translate(50,416)" d="M3.0010343136635407,0A3.0010343136635407,3.0010343136635407,0,1,1,-3.0010343136635407,0A3.0010343136635407,3.0010343136635407,0,1,1,3.0010343136635407,0" style="fill: #72b7b2; stroke-width: 2; opacity: 0.7;"></path><path transform="translate(0,424.5)" d="M2.40768198989655,0A2.40768198989655,2.40768198989655,0,1,1,-2.40768198989655,0A2.40768198989655,2.40768198989655,0,1,1,2.40768198989655,0" style="fill: #72b7b2; stroke-width: 2; opacity: 0.7;"></path></g><g class="mark-group role-scope layer_1_pathgroup"><g transform="translate(0,0)"><path class="background" d="M0,0h450v450h-450Z" style="fill: none;"></path><g><g class="mark-line role-mark layer_1_marks" clip-path="url(#clip1)"><path d="M50,421.5L100,416.75L150,410.75L200,399.5L250,399.5L300,387L350,376.75L400,366.25L450,329.25" style="fill: none; stroke: #4c78a8; stroke-width: 2; stroke-dasharray: 4;"></path></g></g><path class="foreground" d="" style="display: none; fill: none;"></path></g><g transform="translate(0,0)"><path class="background" d="M0,0h450v450h-450Z" style="fill: none;"></path><g><g class="mark-line role-mark layer_1_marks" clip-path="url(#clip2)"><path d="M300,424.75L350,417.25L400,417.25L450,410" style="fill: none; stroke: #f58518; stroke-width: 2; stroke-dasharray: 4;"></path></g></g><path class="foreground" d="" style="display: none; fill: none;"></path></g><g transform="translate(0,0)"><path class="background" d="M0,0h450v450h-450Z" style="fill: none;"></path><g><g class="mark-line role-mark layer_1_marks" clip-path="url(#clip3)"><path d="M250,437.5L300,430.75L350,421L400,414.75L450,403.5" style="fill: none; stroke: #e45756; stroke-width: 2; stroke-dasharray: 4;"></path></g></g><path class="foreground" d="" style="display: none; fill: none;"></path></g><g transform="translate(0,0)"><path class="background" d="M0,0h450v450h-450Z" style="fill: none;"></path><g><g class="mark-line role-mark layer_1_marks" clip-path="url(#clip4)"><path d="M350,434L400,426.75L450,410" style="fill: none; stroke: #72b7b2; stroke-width: 2; stroke-dasharray: 4;"></path></g></g><path class="foreground" d="" style="display: none; fill: none;"></path></g><g transform="translate(0,0)"><path class="background" d="M0,0h450v450h-450Z" style="fill: none;"></path><g><g class="mark-line role-mark layer_1_marks" clip-path="url(#clip5)"><path d="M450,395.5Z" style="fill: none; stroke: #54a24b; stroke-width: 2; stroke-dasharray: 4;"></path></g></g><path class="foreground" d="" style="display: none; fill: none;"></path></g><g transform="translate(0,0)"><path class="background" d="M0,0h450v450h-450Z" style="fill: none;"></path><g><g class="mark-line role-mark layer_1_marks" clip-path="url(#clip6)"><path d="M400,445.75L450,442" style="fill: none; stroke: #eeca3b; stroke-width: 2; stroke-dasharray: 4;"></path></g></g><path class="foreground" d="" style="display: none; fill: none;"></path></g><g transform="translate(0,0)"><path class="background" d="M0,0h450v450h-450Z" style="fill: none;"></path><g><g class="mark-line role-mark layer_1_marks" clip-path="url(#clip7)"><path d="M300,444.75L350,441.25L400,436.5L450,435" style="fill: none; stroke: #b279a2; stroke-width: 2; stroke-dasharray: 4;"></path></g></g><path class="foreground" d="" style="display: none; fill: none;"></path></g><g transform="translate(0,0)"><path class="background" d="M0,0h450v450h-450Z" style="fill: none;"></path><g><g class="mark-line role-mark layer_1_marks" clip-path="url(#clip8)"><path d="M450,444.25Z" style="fill: none; stroke: #ff9da6; stroke-width: 2; stroke-dasharray: 4;"></path></g></g><path class="foreground" d="" style="display: none; fill: none;"></path></g><g transform="translate(0,0)"><path class="background" d="M0,0h450v450h-450Z" style="fill: none;"></path><g><g class="mark-line role-mark layer_1_marks" clip-path="url(#clip9)"><path d="M250,344.75L300,319L350,267.75L400,212.5L450,25.00000000000001" style="fill: none; stroke: #9d755d; stroke-width: 2; stroke-dasharray: 4;"></path></g></g><path class="foreground" d="" style="display: none; fill: none;"></path></g><g transform="translate(0,0)"><path class="background" d="M0,0h450v450h-450Z" style="fill: none;"></path><g><g class="mark-line role-mark layer_1_marks" clip-path="url(#clip10)"><path d="M350,441L400,440.25L450,438.25" style="fill: none; stroke: #bab0ac; stroke-width: 2; stroke-dasharray: 4;"></path></g></g><path class="foreground" d="" style="display: none; fill: none;"></path></g><g transform="translate(0,0)"><path class="background" d="M0,0h450v450h-450Z" style="fill: none;"></path><g><g class="mark-line role-mark layer_1_marks" clip-path="url(#clip11)"><path d="M400,431L450,426" style="fill: none; stroke: #4c78a8; stroke-width: 2; stroke-dasharray: 4;"></path></g></g><path class="foreground" d="" style="display: none; fill: none;"></path></g><g transform="translate(0,0)"><path class="background" d="M0,0h450v450h-450Z" style="fill: none;"></path><g><g class="mark-line role-mark layer_1_marks" clip-path="url(#clip12)"><path d="M450,434Z" style="fill: none; stroke: #f58518; stroke-width: 2; stroke-dasharray: 4;"></path></g></g><path class="foreground" d="" style="display: none; fill: none;"></path></g><g transform="translate(0,0)"><path class="background" d="M0,0h450v450h-450Z" style="fill: none;"></path><g><g class="mark-line role-mark layer_1_marks" clip-path="url(#clip13)"><path d="M450,433.25Z" style="fill: none; stroke: #e45756; stroke-width: 2; stroke-dasharray: 4;"></path></g></g><path class="foreground" d="" style="display: none; fill: none;"></path></g><g transform="translate(0,0)"><path class="background" d="M0,0h450v450h-450Z" style="fill: none;"></path><g><g class="mark-line role-mark layer_1_marks" clip-path="url(#clip14)"><path d="M0,424.5L50,416L100,409.5L150,383.25L200,365.75L250,335.75L300,308L350,289.5L400,257.75L450,224" style="fill: none; stroke: #72b7b2; stroke-width: 2; stroke-dasharray: 4;"></path></g></g><path class="foreground" d="" style="display: none; fill: none;"></path></g><g transform="translate(0,0)"><path class="background" d="M0,0h450v450h-450Z" style="fill: none;"></path><g><g class="mark-line role-mark layer_1_marks" clip-path="url(#clip15)"><path d="M450,432Z" style="fill: none; stroke: #54a24b; stroke-width: 2; stroke-dasharray: 4;"></path></g></g><path class="foreground" d="" style="display: none; fill: none;"></path></g></g><g class="mark-group role-legend"><g transform="translate(468,0)"><path class="background" d="M0,0h33v253h-33Z" style="pointer-events: none; fill: none;"></path><g><g class="mark-group role-legend-entry"><g transform="translate(0,16)"><path class="background" d="M0,0h0v0h0Z" style="pointer-events: none; fill: none;"></path><g><g class="mark-group role-scope"><g transform="translate(0,0)"><path class="background" d="M0,0h33v12.5h-33Z" style="pointer-events: none; fill: none; opacity: 1;"></path><g><g class="mark-symbol role-legend-symbol" style="pointer-events: none;"><path transform="translate(6,6)" d="M5,0A5,5,0,1,1,-5,0A5,5,0,1,1,5,0" style="fill: #4c78a8; stroke: #4c78a8; stroke-width: 1.5; opacity: 0.7;"></path></g><g class="mark-text role-legend-label" style="pointer-events: none;"><text text-anchor="start" transform="translate(16,9)" style="font-family: sans-serif; font-size: 10px; fill: #000; opacity: 1;">CA</text></g></g><path class="foreground" d="" style="pointer-events: none; display: none; fill: none;"></path></g><g transform="translate(0,16)"><path class="background" d="M0,0h33v12.5h-33Z" style="pointer-events: none; fill: none; opacity: 1;"></path><g><g class="mark-symbol role-legend-symbol" style="pointer-events: none;"><path transform="translate(6,6)" d="M5,0A5,5,0,1,1,-5,0A5,5,0,1,1,5,0" style="fill: #f58518; stroke: #f58518; stroke-width: 1.5; opacity: 0.7;"></path></g><g class="mark-text role-legend-label" style="pointer-events: none;"><text text-anchor="start" transform="translate(16,9)" style="font-family: sans-serif; font-size: 10px; fill: #000; opacity: 1;">CO</text></g></g><path class="foreground" d="" style="pointer-events: none; display: none; fill: none;"></path></g><g transform="translate(0,32)"><path class="background" d="M0,0h33v12.5h-33Z" style="pointer-events: none; fill: none; opacity: 1;"></path><g><g class="mark-symbol role-legend-symbol" style="pointer-events: none;"><path transform="translate(6,6)" d="M5,0A5,5,0,1,1,-5,0A5,5,0,1,1,5,0" style="fill: #e45756; stroke: #e45756; stroke-width: 1.5; opacity: 0.7;"></path></g><g class="mark-text role-legend-label" style="pointer-events: none;"><text text-anchor="start" transform="translate(16,9)" style="font-family: sans-serif; font-size: 10px; fill: #000; opacity: 1;">FL</text></g></g><path class="foreground" d="" style="pointer-events: none; display: none; fill: none;"></path></g><g transform="translate(0,48)"><path class="background" d="M0,0h33v12.5h-33Z" style="pointer-events: none; fill: none; opacity: 1;"></path><g><g class="mark-symbol role-legend-symbol" style="pointer-events: none;"><path transform="translate(6,6)" d="M5,0A5,5,0,1,1,-5,0A5,5,0,1,1,5,0" style="fill: #72b7b2; stroke: #72b7b2; stroke-width: 1.5; opacity: 0.7;"></path></g><g class="mark-text role-legend-label" style="pointer-events: none;"><text text-anchor="start" transform="translate(16,9)" style="font-family: sans-serif; font-size: 10px; fill: #000; opacity: 1;">IL</text></g></g><path class="foreground" d="" style="pointer-events: none; display: none; fill: none;"></path></g><g transform="translate(0,64)"><path class="background" d="M0,0h33v12.5h-33Z" style="pointer-events: none; fill: none; opacity: 1;"></path><g><g class="mark-symbol role-legend-symbol" style="pointer-events: none;"><path transform="translate(6,6)" d="M5,0A5,5,0,1,1,-5,0A5,5,0,1,1,5,0" style="fill: #54a24b; stroke: #54a24b; stroke-width: 1.5; opacity: 0.7;"></path></g><g class="mark-text role-legend-label" style="pointer-events: none;"><text text-anchor="start" transform="translate(16,9)" style="font-family: sans-serif; font-size: 10px; fill: #000; opacity: 1;">MA</text></g></g><path class="foreground" d="" style="pointer-events: none; display: none; fill: none;"></path></g><g transform="translate(0,80)"><path class="background" d="M0,0h33v12.5h-33Z" style="pointer-events: none; fill: none; opacity: 1;"></path><g><g class="mark-symbol role-legend-symbol" style="pointer-events: none;"><path transform="translate(6,6)" d="M5,0A5,5,0,1,1,-5,0A5,5,0,1,1,5,0" style="fill: #eeca3b; stroke: #eeca3b; stroke-width: 1.5; opacity: 0.7;"></path></g><g class="mark-text role-legend-label" style="pointer-events: none;"><text text-anchor="start" transform="translate(16,9)" style="font-family: sans-serif; font-size: 10px; fill: #000; opacity: 1;">ME</text></g></g><path class="foreground" d="" style="pointer-events: none; display: none; fill: none;"></path></g><g transform="translate(0,96)"><path class="background" d="M0,0h33v12.5h-33Z" style="pointer-events: none; fill: none; opacity: 1;"></path><g><g class="mark-symbol role-legend-symbol" style="pointer-events: none;"><path transform="translate(6,6)" d="M5,0A5,5,0,1,1,-5,0A5,5,0,1,1,5,0" style="fill: #b279a2; stroke: #b279a2; stroke-width: 1.5; opacity: 0.7;"></path></g><g class="mark-text role-legend-label" style="pointer-events: none;"><text text-anchor="start" transform="translate(16,9)" style="font-family: sans-serif; font-size: 10px; fill: #000; opacity: 1;">MN</text></g></g><path class="foreground" d="" style="pointer-events: none; display: none; fill: none;"></path></g><g transform="translate(0,112)"><path class="background" d="M0,0h33v12.5h-33Z" style="pointer-events: none; fill: none; opacity: 1;"></path><g><g class="mark-symbol role-legend-symbol" style="pointer-events: none;"><path transform="translate(6,6)" d="M5,0A5,5,0,1,1,-5,0A5,5,0,1,1,5,0" style="fill: #ff9da6; stroke: #ff9da6; stroke-width: 1.5; opacity: 0.7;"></path></g><g class="mark-text role-legend-label" style="pointer-events: none;"><text text-anchor="start" transform="translate(16,9)" style="font-family: sans-serif; font-size: 10px; fill: #000; opacity: 1;">NM</text></g></g><path class="foreground" d="" style="pointer-events: none; display: none; fill: none;"></path></g><g transform="translate(0,128)"><path class="background" d="M0,0h33v12.5h-33Z" style="pointer-events: none; fill: none; opacity: 1;"></path><g><g class="mark-symbol role-legend-symbol" style="pointer-events: none;"><path transform="translate(6,6)" d="M5,0A5,5,0,1,1,-5,0A5,5,0,1,1,5,0" style="fill: #9d755d; stroke: #9d755d; stroke-width: 1.5; opacity: 0.7;"></path></g><g class="mark-text role-legend-label" style="pointer-events: none;"><text text-anchor="start" transform="translate(16,9)" style="font-family: sans-serif; font-size: 10px; fill: #000; opacity: 1;">NY</text></g></g><path class="foreground" d="" style="pointer-events: none; display: none; fill: none;"></path></g><g transform="translate(0,144)"><path class="background" d="M0,0h33v12.5h-33Z" style="pointer-events: none; fill: none; opacity: 1;"></path><g><g class="mark-symbol role-legend-symbol" style="pointer-events: none;"><path transform="translate(6,6)" d="M5,0A5,5,0,1,1,-5,0A5,5,0,1,1,5,0" style="fill: #bab0ac; stroke: #bab0ac; stroke-width: 1.5; opacity: 0.7;"></path></g><g class="mark-text role-legend-label" style="pointer-events: none;"><text text-anchor="start" transform="translate(16,9)" style="font-family: sans-serif; font-size: 10px; fill: #000; opacity: 1;">OR</text></g></g><path class="foreground" d="" style="pointer-events: none; display: none; fill: none;"></path></g><g transform="translate(0,160)"><path class="background" d="M0,0h33v12.5h-33Z" style="pointer-events: none; fill: none; opacity: 1;"></path><g><g class="mark-symbol role-legend-symbol" style="pointer-events: none;"><path transform="translate(6,6)" d="M5,0A5,5,0,1,1,-5,0A5,5,0,1,1,5,0" style="fill: #4c78a8; stroke: #4c78a8; stroke-width: 1.5; opacity: 0.7;"></path></g><g class="mark-text role-legend-label" style="pointer-events: none;"><text text-anchor="start" transform="translate(16,9)" style="font-family: sans-serif; font-size: 10px; fill: #000; opacity: 1;">PA</text></g></g><path class="foreground" d="" style="pointer-events: none; display: none; fill: none;"></path></g><g transform="translate(0,176)"><path class="background" d="M0,0h33v12.5h-33Z" style="pointer-events: none; fill: none; opacity: 1;"></path><g><g class="mark-symbol role-legend-symbol" style="pointer-events: none;"><path transform="translate(6,6)" d="M5,0A5,5,0,1,1,-5,0A5,5,0,1,1,5,0" style="fill: #f58518; stroke: #f58518; stroke-width: 1.5; opacity: 0.7;"></path></g><g class="mark-text role-legend-label" style="pointer-events: none;"><text text-anchor="start" transform="translate(16,9)" style="font-family: sans-serif; font-size: 10px; fill: #000; opacity: 1;">TX</text></g></g><path class="foreground" d="" style="pointer-events: none; display: none; fill: none;"></path></g><g transform="translate(0,192)"><path class="background" d="M0,0h33v12.5h-33Z" style="pointer-events: none; fill: none; opacity: 1;"></path><g><g class="mark-symbol role-legend-symbol" style="pointer-events: none;"><path transform="translate(6,6)" d="M5,0A5,5,0,1,1,-5,0A5,5,0,1,1,5,0" style="fill: #e45756; stroke: #e45756; stroke-width: 1.5; opacity: 0.7;"></path></g><g class="mark-text role-legend-label" style="pointer-events: none;"><text text-anchor="start" transform="translate(16,9)" style="font-family: sans-serif; font-size: 10px; fill: #000; opacity: 1;">VA</text></g></g><path class="foreground" d="" style="pointer-events: none; display: none; fill: none;"></path></g><g transform="translate(0,208)"><path class="background" d="M0,0h33v12.5h-33Z" style="pointer-events: none; fill: none; opacity: 1;"></path><g><g class="mark-symbol role-legend-symbol" style="pointer-events: none;"><path transform="translate(6,6)" d="M5,0A5,5,0,1,1,-5,0A5,5,0,1,1,5,0" style="fill: #72b7b2; stroke: #72b7b2; stroke-width: 1.5; opacity: 0.7;"></path></g><g class="mark-text role-legend-label" style="pointer-events: none;"><text text-anchor="start" transform="translate(16,9)" style="font-family: sans-serif; font-size: 10px; fill: #000; opacity: 1;">WA</text></g></g><path class="foreground" d="" style="pointer-events: none; display: none; fill: none;"></path></g><g transform="translate(0,224)"><path class="background" d="M0,0h33v12.5h-33Z" style="pointer-events: none; fill: none; opacity: 1;"></path><g><g class="mark-symbol role-legend-symbol" style="pointer-events: none;"><path transform="translate(6,6)" d="M5,0A5,5,0,1,1,-5,0A5,5,0,1,1,5,0" style="fill: #54a24b; stroke: #54a24b; stroke-width: 1.5; opacity: 0.7;"></path></g><g class="mark-text role-legend-label" style="pointer-events: none;"><text text-anchor="start" transform="translate(16,9)" style="font-family: sans-serif; font-size: 10px; fill: #000; opacity: 1;">WI</text></g></g><path class="foreground" d="" style="pointer-events: none; display: none; fill: none;"></path></g></g></g><path class="foreground" d="" style="pointer-events: none; display: none; fill: none;"></path></g></g><g class="mark-text role-legend-title" style="pointer-events: none;"><text text-anchor="start" transform="translate(0,9)" style="font-family: sans-serif; font-size: 11px; font-weight: bold; fill: #000; opacity: 1;">State</text></g></g><path class="foreground" d="" style="pointer-events: none; display: none; fill: none;"></path></g></g><g class="mark-group role-legend"><g transform="translate(468,261)"><path class="background" d="M0,0h75v132h-75Z" style="pointer-events: none; fill: none;"></path><g><g class="mark-group role-legend-entry"><g transform="translate(0,16)"><path class="background" d="M0,0h0v0h0Z" style="pointer-events: none; fill: none;"></path><g><g class="mark-group role-scope"><g transform="translate(0,0)"><path class="background" d="M0,0h58v10.302129789189989h-58Z" style="pointer-events: none; fill: none; opacity: 1;"></path><g><g class="mark-symbol role-legend-symbol" style="pointer-events: none;"><path transform="translate(10.5,5)" d="M3.802129789189989,0A3.802129789189989,3.802129789189989,0,1,1,-3.802129789189989,0A3.802129789189989,3.802129789189989,0,1,1,3.802129789189989,0" style="fill: black; fill-opacity: 0.7; stroke: none; stroke-width: 1.5; opacity: 0.7;"></path></g><g class="mark-text role-legend-label" style="pointer-events: none;"><text text-anchor="start" transform="translate(25,8)" style="font-family: sans-serif; font-size: 10px; fill: #000; opacity: 1;">2,000</text></g></g><path class="foreground" d="" style="pointer-events: none; display: none; fill: none;"></path></g><g transform="translate(0,14)"><path class="background" d="M0,0h58v13.377023513775239h-58Z" style="pointer-events: none; fill: none; opacity: 1;"></path><g><g class="mark-symbol role-legend-symbol" style="pointer-events: none;"><path transform="translate(10.5,6.5)" d="M5.377023513775239,0A5.377023513775239,5.377023513775239,0,1,1,-5.377023513775239,0A5.377023513775239,5.377023513775239,0,1,1,5.377023513775239,0" style="fill: black; fill-opacity: 0.7; stroke: none; stroke-width: 1.5; opacity: 0.7;"></path></g><g class="mark-text role-legend-label" style="pointer-events: none;"><text text-anchor="start" transform="translate(25,9.5)" style="font-family: sans-serif; font-size: 10px; fill: #000; opacity: 1;">4,000</text></g></g><path class="foreground" d="" style="pointer-events: none; display: none; fill: none;"></path></g><g transform="translate(0,31)"><path class="background" d="M0,0h58v15.585481971848203h-58Z" style="pointer-events: none; fill: none; opacity: 1;"></path><g><g class="mark-symbol role-legend-symbol" style="pointer-events: none;"><path transform="translate(10.5,7.5)" d="M6.585481971848205,0A6.585481971848205,6.585481971848205,0,1,1,-6.585481971848205,0A6.585481971848205,6.585481971848205,0,1,1,6.585481971848205,0" style="fill: black; fill-opacity: 0.7; stroke: none; stroke-width: 1.5; opacity: 0.7;"></path></g><g class="mark-text role-legend-label" style="pointer-events: none;"><text text-anchor="start" transform="translate(25,10.5)" style="font-family: sans-serif; font-size: 10px; fill: #000; opacity: 1;">6,000</text></g></g><path class="foreground" d="" style="pointer-events: none; display: none; fill: none;"></path></g><g transform="translate(0,50)"><path class="background" d="M0,0h58v17.60425957837998h-58Z" style="pointer-events: none; fill: none; opacity: 1;"></path><g><g class="mark-symbol role-legend-symbol" style="pointer-events: none;"><path transform="translate(10.5,8.5)" d="M7.604259578379978,0A7.604259578379978,7.604259578379978,0,1,1,-7.604259578379978,0A7.604259578379978,7.604259578379978,0,1,1,7.604259578379978,0" style="fill: black; fill-opacity: 0.7; stroke: none; stroke-width: 1.5; opacity: 0.7;"></path></g><g class="mark-text role-legend-label" style="pointer-events: none;"><text text-anchor="start" transform="translate(25,11.5)" style="font-family: sans-serif; font-size: 10px; fill: #000; opacity: 1;">8,000</text></g></g><path class="foreground" d="" style="pointer-events: none; display: none; fill: none;"></path></g><g transform="translate(0,71)"><path class="background" d="M0,0h58v19.50182066790576h-58Z" style="pointer-events: none; fill: none; opacity: 1;"></path><g><g class="mark-symbol role-legend-symbol" style="pointer-events: none;"><path transform="translate(10.5,9.5)" d="M8.50182066790576,0A8.50182066790576,8.50182066790576,0,1,1,-8.50182066790576,0A8.50182066790576,8.50182066790576,0,1,1,8.50182066790576,0" style="fill: black; fill-opacity: 0.7; stroke: none; stroke-width: 1.5; opacity: 0.7;"></path></g><g class="mark-text role-legend-label" style="pointer-events: none;"><text text-anchor="start" transform="translate(25,12.5)" style="font-family: sans-serif; font-size: 10px; fill: #000; opacity: 1;">10,000</text></g></g><path class="foreground" d="" style="pointer-events: none; display: none; fill: none;"></path></g><g transform="translate(0,94)"><path class="background" d="M0,0h58v21.313277919351236h-58Z" style="pointer-events: none; fill: none; opacity: 1;"></path><g><g class="mark-symbol role-legend-symbol" style="pointer-events: none;"><path transform="translate(10.5,10.5)" d="M9.313277919351245,0A9.313277919351245,9.313277919351245,0,1,1,-9.313277919351245,0A9.313277919351245,9.313277919351245,0,1,1,9.313277919351245,0" style="fill: black; fill-opacity: 0.7; stroke: none; stroke-width: 1.5; opacity: 0.7;"></path></g><g class="mark-text role-legend-label" style="pointer-events: none;"><text text-anchor="start" transform="translate(25,13.5)" style="font-family: sans-serif; font-size: 10px; fill: #000; opacity: 1;">12,000</text></g></g><path class="foreground" d="" style="pointer-events: none; display: none; fill: none;"></path></g></g></g><path class="foreground" d="" style="pointer-events: none; display: none; fill: none;"></path></g></g><g class="mark-text role-legend-title" style="pointer-events: none;"><text text-anchor="start" transform="translate(0,9)" style="font-family: sans-serif; font-size: 11px; font-weight: bold; fill: #000; opacity: 1;">Total tested</text></g></g><path class="foreground" d="" style="pointer-events: none; display: none; fill: none;"></path></g></g><g class="mark-group role-title"><g transform="translate(225,-22)"><path class="background" d="M0,0h0v0h0Z" style="pointer-events: none; fill: none;"></path><g><g class="mark-text role-title-text" style="pointer-events: none;"><text text-anchor="middle" transform="translate(0,10)" style="font-family: sans-serif; font-size: 13px; font-weight: bold; fill: #000; opacity: 1;">State with 600+ known tested</text></g></g><path class="foreground" d="" style="pointer-events: none; display: none; fill: none;"></path></g></g></g><path class="foreground" d="" style="display: none; fill: none;"></path></g></g></g></svg>
