<?xml version="1.0" encoding="utf-8"?>
<!DOCTYPE svg PUBLIC "-//W3C//DTD SVG 1.1//EN" "http://www.w3.org/Graphics/SVG/1.1/DTD/svg11.dtd">
<svg class="marks" width="548" height="450" viewBox="0 0 548 450" version="1.1" xmlns="http://www.w3.org/2000/svg" xmlns:xlink="http://www.w3.org/1999/xlink"><rect width="548" height="450" style="fill: white;"></rect><g transform="translate(54,13)"><g class="mark-group role-frame root"><g transform="translate(0,0)"><path class="background" d="M0.5,0.5h400v400h-400Z" style="fill: none; stroke: #ddd;"></path><g><g class="mark-group role-axis"><g transform="translate(0.5,400.5)"><path class="background" d="M0,0h0v0h0Z" style="pointer-events: none; fill: none;"></path><g><g class="mark-rule role-axis-grid" style="pointer-events: none;"><line transform="translate(12,-400)" x2="0" y2="400" style="fill: none; stroke: #ddd; stroke-width: 1; opacity: 1;"></line><line transform="translate(48,-400)" x2="0" y2="400" style="fill: none; stroke: #ddd; stroke-width: 1; opacity: 1;"></line><line transform="translate(85,-400)" x2="0" y2="400" style="fill: none; stroke: #ddd; stroke-width: 1; opacity: 1;"></line><line transform="translate(121,-400)" x2="0" y2="400" style="fill: none; stroke: #ddd; stroke-width: 1; opacity: 1;"></line><line transform="translate(156,-400)" x2="0" y2="400" style="fill: none; stroke: #ddd; stroke-width: 1; opacity: 1;"></line><line transform="translate(192,-400)" x2="0" y2="400" style="fill: none; stroke: #ddd; stroke-width: 1; opacity: 1;"></line><line transform="translate(229,-400)" x2="0" y2="400" style="fill: none; stroke: #ddd; stroke-width: 1; opacity: 1;"></line><line transform="translate(265,-400)" x2="0" y2="400" style="fill: none; stroke: #ddd; stroke-width: 1; opacity: 1;"></line><line transform="translate(302,-400)" x2="0" y2="400" style="fill: none; stroke: #ddd; stroke-width: 1; opacity: 1;"></line><line transform="translate(338,-400)" x2="0" y2="400" style="fill: none; stroke: #ddd; stroke-width: 1; opacity: 1;"></line><line transform="translate(374,-400)" x2="0" y2="400" style="fill: none; stroke: #ddd; stroke-width: 1; opacity: 1;"></line></g></g><path class="foreground" d="" style="pointer-events: none; display: none; fill: none;"></path></g></g><g class="mark-group role-axis"><g transform="translate(0.5,0.5)"><path class="background" d="M0,0h0v0h0Z" style="pointer-events: none; fill: none;"></path><g><g class="mark-rule role-axis-grid" style="pointer-events: none;"><line transform="translate(0,400)" x2="400" y2="0" style="fill: none; stroke: #ddd; stroke-width: 1; opacity: 1;"></line><line transform="translate(0,340)" x2="400" y2="0" style="fill: none; stroke: #ddd; stroke-width: 1; opacity: 1;"></line><line transform="translate(0,305)" x2="400" y2="0" style="fill: none; stroke: #ddd; stroke-width: 1; opacity: 1;"></line><line transform="translate(0,280)" x2="400" y2="0" style="fill: none; stroke: #ddd; stroke-width: 1; opacity: 1;"></line><line transform="translate(0,260)" x2="400" y2="0" style="fill: none; stroke: #ddd; stroke-width: 1; opacity: 1;"></line><line transform="translate(0,244)" x2="400" y2="0" style="fill: none; stroke: #ddd; stroke-width: 1; opacity: 1;"></line><line transform="translate(0,231)" x2="400" y2="0" style="fill: none; stroke: #ddd; stroke-width: 1; opacity: 1;"></line><line transform="translate(0,219)" x2="400" y2="0" style="fill: none; stroke: #ddd; stroke-width: 1; opacity: 1;"></line><line transform="translate(0,209)" x2="400" y2="0" style="fill: none; stroke: #ddd; stroke-width: 1; opacity: 1;"></line><line transform="translate(0,200)" x2="400" y2="0" style="fill: none; stroke: #ddd; stroke-width: 1; opacity: 1;"></line><line transform="translate(0,140)" x2="400" y2="0" style="fill: none; stroke: #ddd; stroke-width: 1; opacity: 1;"></line><line transform="translate(0,105)" x2="400" y2="0" style="fill: none; stroke: #ddd; stroke-width: 1; opacity: 1;"></line><line transform="translate(0,80)" x2="400" y2="0" style="fill: none; stroke: #ddd; stroke-width: 1; opacity: 1;"></line><line transform="translate(0,60)" x2="400" y2="0" style="fill: none; stroke: #ddd; stroke-width: 1; opacity: 1;"></line><line transform="translate(0,44)" x2="400" y2="0" style="fill: none; stroke: #ddd; stroke-width: 1; opacity: 1;"></line><line transform="translate(0,31)" x2="400" y2="0" style="fill: none; stroke: #ddd; stroke-width: 1; opacity: 1;"></line><line transform="translate(0,19)" x2="400" y2="0" style="fill: none; stroke: #ddd; stroke-width: 1; opacity: 1;"></line><line transform="translate(0,9)" x2="400" y2="0" style="fill: none; stroke: #ddd; stroke-width: 1; opacity: 1;"></line><line transform="translate(0,0)" x2="400" y2="0" style="fill: none; stroke: #ddd; stroke-width: 1; opacity: 1;"></line></g></g><path class="foreground" d="" style="pointer-events: none; display: none; fill: none;"></path></g></g><g class="mark-group role-axis"><g transform="translate(0.5,400.5)"><path class="background" d="M0,0h0v0h0Z" style="pointer-events: none; fill: none;"></path><g><g class="mark-rule role-axis-tick" style="pointer-events: none;"><line transform="translate(12,0)" x2="0" y2="5" style="fill: none; stroke: #888; stroke-width: 1; opacity: 1;"></line><line transform="translate(48,0)" x2="0" y2="5" style="fill: none; stroke: #888; stroke-width: 1; opacity: 1;"></line><line transform="translate(85,0)" x2="0" y2="5" style="fill: none; stroke: #888; stroke-width: 1; opacity: 1;"></line><line transform="translate(121,0)" x2="0" y2="5" style="fill: none; stroke: #888; stroke-width: 1; opacity: 1;"></line><line transform="translate(156,0)" x2="0" y2="5" style="fill: none; stroke: #888; stroke-width: 1; opacity: 1;"></line><line transform="translate(192,0)" x2="0" y2="5" style="fill: none; stroke: #888; stroke-width: 1; opacity: 1;"></line><line transform="translate(229,0)" x2="0" y2="5" style="fill: none; stroke: #888; stroke-width: 1; opacity: 1;"></line><line transform="translate(265,0)" x2="0" y2="5" style="fill: none; stroke: #888; stroke-width: 1; opacity: 1;"></line><line transform="translate(302,0)" x2="0" y2="5" style="fill: none; stroke: #888; stroke-width: 1; opacity: 1;"></line><line transform="translate(338,0)" x2="0" y2="5" style="fill: none; stroke: #888; stroke-width: 1; opacity: 1;"></line><line transform="translate(374,0)" x2="0" y2="5" style="fill: none; stroke: #888; stroke-width: 1; opacity: 1;"></line></g><g class="mark-text role-axis-label" style="pointer-events: none;"><text text-anchor="middle" transform="translate(12.121212121212121,15)" style="font-family: sans-serif; font-size: 10px; fill: #000; opacity: 1;">Thu 05</text><text text-anchor="middle" transform="translate(48.484848484848484,15)" style="font-family: sans-serif; font-size: 10px; fill: #000; opacity: 0;">Fri 06</text><text text-anchor="middle" transform="translate(84.84848484848484,15)" style="font-family: sans-serif; font-size: 10px; fill: #000; opacity: 1;">Sat 07</text><text text-anchor="middle" transform="translate(121.21212121212122,15)" style="font-family: sans-serif; font-size: 10px; fill: #000; opacity: 0;">Mar 08</text><text text-anchor="middle" transform="translate(156.06060606060606,15)" style="font-family: sans-serif; font-size: 10px; fill: #000; opacity: 1;">Mon 09</text><text text-anchor="middle" transform="translate(192.42424242424244,15)" style="font-family: sans-serif; font-size: 10px; fill: #000; opacity: 0;">Tue 10</text><text text-anchor="middle" transform="translate(228.7878787878788,15)" style="font-family: sans-serif; font-size: 10px; fill: #000; opacity: 1;">Wed 11</text><text text-anchor="middle" transform="translate(265.1515151515151,15)" style="font-family: sans-serif; font-size: 10px; fill: #000; opacity: 0;">Thu 12</text><text text-anchor="middle" transform="translate(301.5151515151515,15)" style="font-family: sans-serif; font-size: 10px; fill: #000; opacity: 1;">Fri 13</text><text text-anchor="middle" transform="translate(337.8787878787879,15)" style="font-family: sans-serif; font-size: 10px; fill: #000; opacity: 0;">Sat 14</text><text text-anchor="middle" transform="translate(374.24242424242425,15)" style="font-family: sans-serif; font-size: 10px; fill: #000; opacity: 1;">Mar 15</text></g><g class="mark-rule role-axis-domain" style="pointer-events: none;"><line transform="translate(0,0)" x2="400" y2="0" style="fill: none; stroke: #888; stroke-width: 1; opacity: 1;"></line></g><g class="mark-text role-axis-title" style="pointer-events: none;"><text text-anchor="middle" transform="translate(200,30)" style="font-family: sans-serif; font-size: 11px; font-weight: bold; fill: #000; opacity: 1;">date</text></g></g><path class="foreground" d="" style="pointer-events: none; display: none; fill: none;"></path></g></g><g class="mark-group role-axis"><g transform="translate(0.5,0.5)"><path class="background" d="M0,0h0v0h0Z" style="pointer-events: none; fill: none;"></path><g><g class="mark-rule role-axis-tick" style="pointer-events: none;"><line transform="translate(0,400)" x2="-5" y2="0" style="fill: none; stroke: #888; stroke-width: 1; opacity: 1;"></line><line transform="translate(0,340)" x2="-5" y2="0" style="fill: none; stroke: #888; stroke-width: 1; opacity: 1;"></line><line transform="translate(0,305)" x2="-5" y2="0" style="fill: none; stroke: #888; stroke-width: 1; opacity: 1;"></line><line transform="translate(0,280)" x2="-5" y2="0" style="fill: none; stroke: #888; stroke-width: 1; opacity: 1;"></line><line transform="translate(0,260)" x2="-5" y2="0" style="fill: none; stroke: #888; stroke-width: 1; opacity: 1;"></line><line transform="translate(0,244)" x2="-5" y2="0" style="fill: none; stroke: #888; stroke-width: 1; opacity: 1;"></line><line transform="translate(0,231)" x2="-5" y2="0" style="fill: none; stroke: #888; stroke-width: 1; opacity: 1;"></line><line transform="translate(0,219)" x2="-5" y2="0" style="fill: none; stroke: #888; stroke-width: 1; opacity: 1;"></line><line transform="translate(0,209)" x2="-5" y2="0" style="fill: none; stroke: #888; stroke-width: 1; opacity: 1;"></line><line transform="translate(0,200)" x2="-5" y2="0" style="fill: none; stroke: #888; stroke-width: 1; opacity: 1;"></line><line transform="translate(0,140)" x2="-5" y2="0" style="fill: none; stroke: #888; stroke-width: 1; opacity: 1;"></line><line transform="translate(0,105)" x2="-5" y2="0" style="fill: none; stroke: #888; stroke-width: 1; opacity: 1;"></line><line transform="translate(0,80)" x2="-5" y2="0" style="fill: none; stroke: #888; stroke-width: 1; opacity: 1;"></line><line transform="translate(0,60)" x2="-5" y2="0" style="fill: none; stroke: #888; stroke-width: 1; opacity: 1;"></line><line transform="translate(0,44)" x2="-5" y2="0" style="fill: none; stroke: #888; stroke-width: 1; opacity: 1;"></line><line transform="translate(0,31)" x2="-5" y2="0" style="fill: none; stroke: #888; stroke-width: 1; opacity: 1;"></line><line transform="translate(0,19)" x2="-5" y2="0" style="fill: none; stroke: #888; stroke-width: 1; opacity: 1;"></line><line transform="translate(0,9)" x2="-5" y2="0" style="fill: none; stroke: #888; stroke-width: 1; opacity: 1;"></line><line transform="translate(0,0)" x2="-5" y2="0" style="fill: none; stroke: #888; stroke-width: 1; opacity: 1;"></line></g><g class="mark-text role-axis-label" style="pointer-events: none;"><text text-anchor="end" transform="translate(-7,403)" style="font-family: sans-serif; font-size: 10px; fill: #000; opacity: 1;">10</text><text text-anchor="end" transform="translate(-7,342.7940008672038)" style="font-family: sans-serif; font-size: 10px; fill: #000; opacity: 1;">20</text><text text-anchor="end" transform="translate(-7,307.57574905606754)" style="font-family: sans-serif; font-size: 10px; fill: #000; opacity: 1;">30</text><text text-anchor="end" transform="translate(-7,282.58800173440756)" style="font-family: sans-serif; font-size: 10px; fill: #000; opacity: 1;">40</text><text text-anchor="end" transform="translate(-7,263.20599913279625)" style="font-family: sans-serif; font-size: 10px; fill: #000; opacity: 1;">50</text><text text-anchor="end" transform="translate(-7,247.3697499232713)" style="font-family: sans-serif; font-size: 10px; fill: #000; opacity: 1;"></text><text text-anchor="end" transform="translate(-7,233.98039199714862)" style="font-family: sans-serif; font-size: 10px; fill: #000; opacity: 1;"></text><text text-anchor="end" transform="translate(-7,222.38200260161133)" style="font-family: sans-serif; font-size: 10px; fill: #000; opacity: 1;"></text><text text-anchor="end" transform="translate(-7,212.15149811213504)" style="font-family: sans-serif; font-size: 10px; fill: #000; opacity: 1;"></text><text text-anchor="end" transform="translate(-7,202.99999999999994)" style="font-family: sans-serif; font-size: 10px; fill: #000; opacity: 1;">100</text><text text-anchor="end" transform="translate(-7,142.7940008672038)" style="font-family: sans-serif; font-size: 10px; fill: #000; opacity: 1;">200</text><text text-anchor="end" transform="translate(-7,107.57574905606752)" style="font-family: sans-serif; font-size: 10px; fill: #000; opacity: 1;">300</text><text text-anchor="end" transform="translate(-7,82.58800173440754)" style="font-family: sans-serif; font-size: 10px; fill: #000; opacity: 1;">400</text><text text-anchor="end" transform="translate(-7,63.20599913279625)" style="font-family: sans-serif; font-size: 10px; fill: #000; opacity: 1;">500</text><text text-anchor="end" transform="translate(-7,47.36974992327127)" style="font-family: sans-serif; font-size: 10px; fill: #000; opacity: 1;"></text><text text-anchor="end" transform="translate(-7,33.98039199714866)" style="font-family: sans-serif; font-size: 10px; fill: #000; opacity: 1;"></text><text text-anchor="end" transform="translate(-7,22.38200260161129)" style="font-family: sans-serif; font-size: 10px; fill: #000; opacity: 1;"></text><text text-anchor="end" transform="translate(-7,12.151498112135004)" style="font-family: sans-serif; font-size: 10px; fill: #000; opacity: 1;"></text><text text-anchor="end" transform="translate(-7,3)" style="font-family: sans-serif; font-size: 10px; fill: #000; opacity: 1;">1,000</text></g><g class="mark-rule role-axis-domain" style="pointer-events: none;"><line transform="translate(0,400)" x2="0" y2="-400" style="fill: none; stroke: #888; stroke-width: 1; opacity: 1;"></line></g><g class="mark-text role-axis-title" style="pointer-events: none;"><text text-anchor="middle" transform="translate(-38,200) rotate(-90) translate(0,-2)" style="font-family: sans-serif; font-size: 11px; font-weight: bold; fill: #000; opacity: 1;">positive</text></g></g><path class="foreground" d="" style="pointer-events: none; display: none; fill: none;"></path></g></g><g class="mark-symbol role-mark layer_0_marks"><path transform="translate(400,157.0312303904604)" d="M2.9720817798676986,0A2.9720817798676986,2.9720817798676986,0,1,1,-2.9720817798676986,0A2.9720817798676986,2.9720817798676986,0,1,1,2.9720817798676986,0" style="fill: none; stroke: #4c78a8; stroke-width: 2; opacity: 0.7;"></path><path transform="translate(400,353.9102157243452)" d="M3.6564650063885273,0A3.6564650063885273,3.6564650063885273,0,1,1,-3.6564650063885273,0A3.6564650063885273,3.6564650063885273,0,1,1,3.6564650063885273,0" style="fill: none; stroke: #f58518; stroke-width: 2; opacity: 0.7;"></path><path transform="translate(400,149.9159995382212)" d="M1.9318088498796782,0A1.9318088498796782,1.9318088498796782,0,1,1,-1.9318088498796782,0A1.9318088498796782,1.9318088498796782,0,1,1,1.9318088498796782,0" style="fill: none; stroke: #e45756; stroke-width: 2; opacity: 0.7;"></path><path transform="translate(400,4.455278942230434)" d="M9.5,0A9.5,9.5,0,1,1,-9.5,0A9.5,9.5,0,1,1,9.5,0" style="fill: none; stroke: #72b7b2; stroke-width: 2; opacity: 0.7;"></path><path transform="translate(400,223.83728154384173)" d="M3.5735948881883903,0A3.5735948881883903,3.5735948881883903,0,1,1,-3.5735948881883903,0A3.5735948881883903,3.5735948881883903,0,1,1,3.5735948881883903,0" style="fill: none; stroke: #54a24b; stroke-width: 2; opacity: 0.7;"></path><path transform="translate(363.6363636363636,172.02418271975267)" d="M2.8962359801658573,0A2.8962359801658573,2.8962359801658573,0,1,1,-2.8962359801658573,0A2.8962359801658573,2.8962359801658573,0,1,1,2.8962359801658573,0" style="fill: none; stroke: #4c78a8; stroke-width: 2; opacity: 0.7;"></path><path transform="translate(363.6363636363636,201.75478486150098)" d="M2.076998461726723,0A2.076998461726723,2.076998461726723,0,1,1,-2.076998461726723,0A2.076998461726723,2.076998461726723,0,1,1,2.076998461726723,0" style="fill: none; stroke: #e45756; stroke-width: 2; opacity: 0.7;"></path><path transform="translate(363.6363636363636,27.454494336405055)" d="M9.5,0A9.5,9.5,0,1,1,-9.5,0A9.5,9.5,0,1,1,9.5,0" style="fill: none; stroke: #72b7b2; stroke-width: 2; opacity: 0.7;"></path><path transform="translate(363.6363636363636,240.13189010928366)" d="M2.7785881257728517,0A2.7785881257728517,2.7785881257728517,0,1,1,-2.7785881257728517,0A2.7785881257728517,2.7785881257728517,0,1,1,2.7785881257728517,0" style="fill: none; stroke: #54a24b; stroke-width: 2; opacity: 0.7;"></path><path transform="translate(327.2727272727273,172.02418271975267)" d="M2.8962359801658573,0A2.8962359801658573,2.8962359801658573,0,1,1,-2.8962359801658573,0A2.8962359801658573,2.8962359801658573,0,1,1,2.8962359801658573,0" style="fill: none; stroke: #4c78a8; stroke-width: 2; opacity: 0.7;"></path><path transform="translate(327.2727272727273,260.20599913279625)" d="M1.4917896189045292,0A1.4917896189045292,1.4917896189045292,0,1,1,-1.4917896189045292,0A1.4917896189045292,1.4917896189045292,0,1,1,1.4917896189045292,0" style="fill: none; stroke: #e45756; stroke-width: 2; opacity: 0.7;"></path><path transform="translate(327.2727272727273,56.13374260325465)" d="M7.519521256311965,0A7.519521256311965,7.519521256311965,0,1,1,-7.519521256311965,0A7.519521256311965,7.519521256311965,0,1,1,7.519521256311965,0" style="fill: none; stroke: #72b7b2; stroke-width: 2; opacity: 0.7;"></path><path transform="translate(327.2727272727273,265.5804284128565)" d="M2.623305869967351,0A2.623305869967351,2.623305869967351,0,1,1,-2.623305869967351,0A2.623305869967351,2.623305869967351,0,1,1,2.623305869967351,0" style="fill: none; stroke: #54a24b; stroke-width: 2; opacity: 0.7;"></path><path transform="translate(290.90909090909093,182.01897771212043)" d="M1.918470539499016,0A1.918470539499016,1.918470539499016,0,1,1,-1.918470539499016,0A1.918470539499016,1.918470539499016,0,1,1,1.918470539499016,0" style="fill: none; stroke: #4c78a8; stroke-width: 2; opacity: 0.7;"></path><path transform="translate(290.90909090909093,260.20599913279625)" d="M1.4917896189045292,0A1.4917896189045292,1.4917896189045292,0,1,1,-1.4917896189045292,0A1.4917896189045292,1.4917896189045292,0,1,1,1.4917896189045292,0" style="fill: none; stroke: #e45756; stroke-width: 2; opacity: 0.7;"></path><path transform="translate(290.90909090909093,75.14358083286635)" d="M7.401349177750388,0A7.401349177750388,7.401349177750388,0,1,1,-7.401349177750388,0A7.401349177750388,7.401349177750388,0,1,1,7.401349177750388,0" style="fill: none; stroke: #72b7b2; stroke-width: 2; opacity: 0.7;"></path><path transform="translate(290.90909090909093,296.2972120244225)" d="M2.2774938806345384,0A2.2774938806345384,2.2774938806345384,0,1,1,-2.2774938806345384,0A2.2774938806345384,2.2774938806345384,0,1,1,2.2774938806345384,0" style="fill: none; stroke: #54a24b; stroke-width: 2; opacity: 0.7;"></path><path transform="translate(254.54545454545453,204.45527894223048)" d="M1.2752569737169277,0A1.2752569737169277,1.2752569737169277,0,1,1,-1.2752569737169277,0A1.2752569737169277,1.2752569737169277,0,1,1,1.2752569737169277,0" style="fill: none; stroke: #4c78a8; stroke-width: 2; opacity: 0.7;"></path><path transform="translate(254.54545454545453,304.57574905606754)" d="M1.456957042597935,0A1.456957042597935,1.456957042597935,0,1,1,-1.456957042597935,0A1.456957042597935,1.456957042597935,0,1,1,1.456957042597935,0" style="fill: none; stroke: #e45756; stroke-width: 2; opacity: 0.7;"></path><path transform="translate(254.54545454545453,133.10924976981377)" d="M1.9229269230632708,0A1.9229269230632708,1.9229269230632708,0,1,1,-1.9229269230632708,0A1.9229269230632708,1.9229269230632708,0,1,1,1.9229269230632708,0" style="fill: none; stroke: #72b7b2; stroke-width: 2; opacity: 0.7;"></path><path transform="translate(254.54545454545453,331.51546383555876)" d="M1.9362345346030212,0A1.9362345346030212,1.9362345346030212,0,1,1,-1.9362345346030212,0A1.9362345346030212,1.9362345346030212,0,1,1,1.9362345346030212,0" style="fill: none; stroke: #54a24b; stroke-width: 2; opacity: 0.7;"></path><path transform="translate(218.18181818181816,207.24243453088894)" d="M1.2549598110959002,0A1.2549598110959002,1.2549598110959002,0,1,1,-1.2549598110959002,0A1.2549598110959002,1.2549598110959002,0,1,1,1.2549598110959002,0" style="fill: none; stroke: #4c78a8; stroke-width: 2; opacity: 0.7;"></path><path transform="translate(218.18181818181816,323.95775165767884)" d="M1.3083860483791943,0A1.3083860483791943,1.3083860483791943,0,1,1,-1.3083860483791943,0A1.3083860483791943,1.3083860483791943,0,1,1,1.3083860483791943,0" style="fill: none; stroke: #e45756; stroke-width: 2; opacity: 0.7;"></path><path transform="translate(218.18181818181816,133.10924976981377)" d="M1.9229269230632708,0A1.9229269230632708,1.9229269230632708,0,1,1,-1.9229269230632708,0A1.9229269230632708,1.9229269230632708,0,1,1,1.9229269230632708,0" style="fill: none; stroke: #72b7b2; stroke-width: 2; opacity: 0.7;"></path><path transform="translate(218.18181818181816,364.7817481888638)" d="M1.6394030197000118,0A1.6394030197000118,1.6394030197000118,0,1,1,-1.6394030197000118,0A1.6394030197000118,1.6394030197000118,0,1,1,1.6394030197000118,0" style="fill: none; stroke: #54a24b; stroke-width: 2; opacity: 0.7;"></path><path transform="translate(181.8181818181818,207.24243453088894)" d="M0.00013083860483791942,0A0.00013083860483791942,0.00013083860483791942,0,1,1,-0.00013083860483791942,0A0.00013083860483791942,0.00013083860483791942,0,1,1,0.00013083860483791942,0" style="fill: none; stroke: #4c78a8; stroke-width: 2; opacity: 0.7;"></path><path transform="translate(181.8181818181818,364.7817481888638)" d="M1.1629189570897558,0A1.1629189570897558,1.1629189570897558,0,1,1,-1.1629189570897558,0A1.1629189570897558,1.1629189570897558,0,1,1,1.1629189570897558,0" style="fill: none; stroke: #e45756; stroke-width: 2; opacity: 0.7;"></path><path transform="translate(181.8181818181818,152.3907793742409)" d="M2.1298981752004735,0A2.1298981752004735,2.1298981752004735,0,1,1,-2.1298981752004735,0A2.1298981752004735,2.1298981752004735,0,1,1,2.1298981752004735,0" style="fill: none; stroke: #72b7b2; stroke-width: 2; opacity: 0.7;"></path><path transform="translate(181.8181818181818,384.1637507904751)" d="M0.00013083860483791942,0A0.00013083860483791942,0.00013083860483791942,0,1,1,-0.00013083860483791942,0A0.00013083860483791942,0.00013083860483791942,0,1,1,0.00013083860483791942,0" style="fill: none; stroke: #54a24b; stroke-width: 2; opacity: 0.7;"></path><path transform="translate(145.45454545454547,277.4432286560529)" d="M0.8377758418295806,0A0.8377758418295806,0.8377758418295806,0,1,1,-0.8377758418295806,0A0.8377758418295806,0.8377758418295806,0,1,1,0.8377758418295806,0" style="fill: none; stroke: #4c78a8; stroke-width: 2; opacity: 0.7;"></path><path transform="translate(145.45454545454547,391.721462968355)" d="M1.0134714751565501,0A1.0134714751565501,1.0134714751565501,0,1,1,-1.0134714751565501,0A1.0134714751565501,1.0134714751565501,0,1,1,1.0134714751565501,0" style="fill: none; stroke: #e45756; stroke-width: 2; opacity: 0.7;"></path><path transform="translate(145.45454545454547,169.5423311233887)" d="M2.0014457975994193,0A2.0014457975994193,2.0014457975994193,0,1,1,-2.0014457975994193,0A2.0014457975994193,2.0014457975994193,0,1,1,2.0014457975994193,0" style="fill: none; stroke: #72b7b2; stroke-width: 2; opacity: 0.7;"></path><path transform="translate(109.09090909090908,195.7621401860124)" d="M1.8364073299894135,0A1.8364073299894135,1.8364073299894135,0,1,1,-1.8364073299894135,0A1.8364073299894135,1.8364073299894135,0,1,1,1.8364073299894135,0" style="fill: none; stroke: #72b7b2; stroke-width: 2; opacity: 0.7;"></path><path transform="translate(109.09090909090908,377.21132953863264)" d="M0.4717452985532893,0A0.4717452985532893,0.4717452985532893,0,1,1,-0.4717452985532893,0A0.4717452985532893,0.4717452985532893,0,1,1,0.4717452985532893,0" style="fill: none; stroke: #4c78a8; stroke-width: 2; opacity: 0.7;"></path><path transform="translate(72.72727272727273,223.83728154384173)" d="M2.6298234101241524,0A2.6298234101241524,2.6298234101241524,0,1,1,-2.6298234101241524,0A2.6298234101241524,2.6298234101241524,0,1,1,2.6298234101241524,0" style="fill: none; stroke: #72b7b2; stroke-width: 2; opacity: 0.7;"></path><path transform="translate(72.72727272727273,377.21132953863264)" d="M0.4717452985532893,0A0.4717452985532893,0.4717452985532893,0,1,1,-0.4717452985532893,0A0.4717452985532893,0.4717452985532893,0,1,1,0.4717452985532893,0" style="fill: none; stroke: #4c78a8; stroke-width: 2; opacity: 0.7;"></path><path transform="translate(36.36363636363637,296.2972120244225)" d="M2.485933491920469,0A2.485933491920469,2.485933491920469,0,1,1,-2.485933491920469,0A2.485933491920469,2.485933491920469,0,1,1,2.485933491920469,0" style="fill: none; stroke: #72b7b2; stroke-width: 2; opacity: 0.7;"></path><path transform="translate(0,331.51546383555876)" d="M1.4451596254199237,0A1.4451596254199237,1.4451596254199237,0,1,1,-1.4451596254199237,0A1.4451596254199237,1.4451596254199237,0,1,1,1.4451596254199237,0" style="fill: none; stroke: #72b7b2; stroke-width: 2; opacity: 0.7;"></path></g><g class="mark-group role-scope layer_1_pathgroup"><g transform="translate(0,0)"><path class="background" d="M0,0h400v400h-400Z" style="fill: none;"></path><g><g class="mark-line role-mark layer_1_marks"><path d="M72.72727272727273,377.21132953863264L109.09090909090908,377.21132953863264L145.45454545454547,277.4432286560529L181.8181818181818,207.24243453088894L218.18181818181816,207.24243453088894L254.54545454545453,204.45527894223048L290.90909090909093,182.01897771212043L327.2727272727273,172.02418271975267L363.6363636363636,172.02418271975267L400,157.0312303904604" style="fill: none; stroke: #4c78a8; stroke-width: 2; stroke-dasharray: 8;"></path></g></g><path class="foreground" d="" style="display: none; fill: none;"></path></g><g transform="translate(0,0)"><path class="background" d="M0,0h400v400h-400Z" style="fill: none;"></path><g><g class="mark-line role-mark layer_1_marks"><path d="M400,353.9102157243452Z" style="fill: none; stroke: #f58518; stroke-width: 2; stroke-dasharray: 8;"></path></g></g><path class="foreground" d="" style="display: none; fill: none;"></path></g><g transform="translate(0,0)"><path class="background" d="M0,0h400v400h-400Z" style="fill: none;"></path><g><g class="mark-line role-mark layer_1_marks"><path d="M145.45454545454547,391.721462968355L181.8181818181818,364.7817481888638L218.18181818181816,323.95775165767884L254.54545454545453,304.57574905606754L290.90909090909093,260.20599913279625L327.2727272727273,260.20599913279625L363.6363636363636,201.75478486150098L400,149.9159995382212" style="fill: none; stroke: #e45756; stroke-width: 2; stroke-dasharray: 8;"></path></g></g><path class="foreground" d="" style="display: none; fill: none;"></path></g><g transform="translate(0,0)"><path class="background" d="M0,0h400v400h-400Z" style="fill: none;"></path><g><g class="mark-line role-mark layer_1_marks"><path d="M0,331.51546383555876L36.36363636363637,296.2972120244225L72.72727272727273,223.83728154384173L109.09090909090908,195.7621401860124L145.45454545454547,169.5423311233887L181.8181818181818,152.3907793742409L218.18181818181816,133.10924976981377L254.54545454545453,133.10924976981377L290.90909090909093,75.14358083286635L327.2727272727273,56.13374260325465L363.6363636363636,27.454494336405055L400,4.455278942230434" style="fill: none; stroke: #72b7b2; stroke-width: 2; stroke-dasharray: 8;"></path></g></g><path class="foreground" d="" style="display: none; fill: none;"></path></g><g transform="translate(0,0)"><path class="background" d="M0,0h400v400h-400Z" style="fill: none;"></path><g><g class="mark-line role-mark layer_1_marks"><path d="M181.8181818181818,384.1637507904751L218.18181818181816,364.7817481888638L254.54545454545453,331.51546383555876L290.90909090909093,296.2972120244225L327.2727272727273,265.5804284128565L363.6363636363636,240.13189010928366L400,223.83728154384173" style="fill: none; stroke: #54a24b; stroke-width: 2; stroke-dasharray: 8;"></path></g></g><path class="foreground" d="" style="display: none; fill: none;"></path></g></g><g class="mark-group role-legend"><g transform="translate(420,0)"><path class="background" d="M0,0h32v93h-32Z" style="pointer-events: none; fill: none;"></path><g><g class="mark-group role-legend-entry"><g transform="translate(0,16)"><path class="background" d="M0,0h0v0h0Z" style="pointer-events: none; fill: none;"></path><g><g class="mark-group role-scope"><g transform="translate(0,0)"><path class="background" d="M0,0h32v12.5h-32Z" style="pointer-events: none; fill: none; opacity: 1;"></path><g><g class="mark-symbol role-legend-symbol" style="pointer-events: none;"><path transform="translate(6,6)" d="M5,0A5,5,0,1,1,-5,0A5,5,0,1,1,5,0" style="fill: none; stroke: #4c78a8; stroke-width: 1.5; opacity: 0.7;"></path></g><g class="mark-text role-legend-label" style="pointer-events: none;"><text text-anchor="start" transform="translate(16,9)" style="font-family: sans-serif; font-size: 10px; fill: #000; opacity: 1;">MA</text></g></g><path class="foreground" d="" style="pointer-events: none; display: none; fill: none;"></path></g><g transform="translate(0,16)"><path class="background" d="M0,0h32v12.5h-32Z" style="pointer-events: none; fill: none; opacity: 1;"></path><g><g class="mark-symbol role-legend-symbol" style="pointer-events: none;"><path transform="translate(6,6)" d="M5,0A5,5,0,1,1,-5,0A5,5,0,1,1,5,0" style="fill: none; stroke: #f58518; stroke-width: 1.5; opacity: 0.7;"></path></g><g class="mark-text role-legend-label" style="pointer-events: none;"><text text-anchor="start" transform="translate(16,9)" style="font-family: sans-serif; font-size: 10px; fill: #000; opacity: 1;">ME</text></g></g><path class="foreground" d="" style="pointer-events: none; display: none; fill: none;"></path></g><g transform="translate(0,32)"><path class="background" d="M0,0h32v12.5h-32Z" style="pointer-events: none; fill: none; opacity: 1;"></path><g><g class="mark-symbol role-legend-symbol" style="pointer-events: none;"><path transform="translate(6,6)" d="M5,0A5,5,0,1,1,-5,0A5,5,0,1,1,5,0" style="fill: none; stroke: #e45756; stroke-width: 1.5; opacity: 0.7;"></path></g><g class="mark-text role-legend-label" style="pointer-events: none;"><text text-anchor="start" transform="translate(16,9)" style="font-family: sans-serif; font-size: 10px; fill: #000; opacity: 1;">NJ</text></g></g><path class="foreground" d="" style="pointer-events: none; display: none; fill: none;"></path></g><g transform="translate(0,48)"><path class="background" d="M0,0h32v12.5h-32Z" style="pointer-events: none; fill: none; opacity: 1;"></path><g><g class="mark-symbol role-legend-symbol" style="pointer-events: none;"><path transform="translate(6,6)" d="M5,0A5,5,0,1,1,-5,0A5,5,0,1,1,5,0" style="fill: none; stroke: #72b7b2; stroke-width: 1.5; opacity: 0.7;"></path></g><g class="mark-text role-legend-label" style="pointer-events: none;"><text text-anchor="start" transform="translate(16,9)" style="font-family: sans-serif; font-size: 10px; fill: #000; opacity: 1;">NY</text></g></g><path class="foreground" d="" style="pointer-events: none; display: none; fill: none;"></path></g><g transform="translate(0,64)"><path class="background" d="M0,0h32v12.5h-32Z" style="pointer-events: none; fill: none; opacity: 1;"></path><g><g class="mark-symbol role-legend-symbol" style="pointer-events: none;"><path transform="translate(6,6)" d="M5,0A5,5,0,1,1,-5,0A5,5,0,1,1,5,0" style="fill: none; stroke: #54a24b; stroke-width: 1.5; opacity: 0.7;"></path></g><g class="mark-text role-legend-label" style="pointer-events: none;"><text text-anchor="start" transform="translate(16,9)" style="font-family: sans-serif; font-size: 10px; fill: #000; opacity: 1;">PA</text></g></g><path class="foreground" d="" style="pointer-events: none; display: none; fill: none;"></path></g></g></g><path class="foreground" d="" style="pointer-events: none; display: none; fill: none;"></path></g></g><g class="mark-text role-legend-title" style="pointer-events: none;"><text text-anchor="start" transform="translate(0,9)" style="font-family: sans-serif; font-size: 11px; font-weight: bold; fill: #000; opacity: 1;">state</text></g></g><path class="foreground" d="" style="pointer-events: none; display: none; fill: none;"></path></g></g><g class="mark-group role-legend"><g transform="translate(420,101)"><path class="background" d="M0,0h69v113h-69Z" style="pointer-events: none; fill: none;"></path><g><g class="mark-group role-legend-entry"><g transform="translate(0,16)"><path class="background" d="M0,0h0v0h0Z" style="pointer-events: none; fill: none;"></path><g><g class="mark-group role-scope"><g transform="translate(0,0)"><path class="background" d="M0,0h52v10.63747997166551h-52Z" style="pointer-events: none; fill: none; opacity: 1;"></path><g><g class="mark-symbol role-legend-symbol" style="pointer-events: none;"><path transform="translate(10.5,5)" d="M4.137479971665511,0A4.137479971665511,4.137479971665511,0,1,1,-4.137479971665511,0A4.137479971665511,4.137479971665511,0,1,1,4.137479971665511,0" style="fill: none; stroke: #888; stroke-width: 1.5; opacity: 0.7;"></path></g><g class="mark-text role-legend-label" style="pointer-events: none;"><text text-anchor="start" transform="translate(25,8)" style="font-family: sans-serif; font-size: 10px; fill: #000; opacity: 1;">1,000</text></g></g><path class="foreground" d="" style="pointer-events: none; display: none; fill: none;"></path></g><g transform="translate(0,14)"><path class="background" d="M0,0h52v14.351280289976415h-52Z" style="pointer-events: none; fill: none; opacity: 1;"></path><g><g class="mark-symbol role-legend-symbol" style="pointer-events: none;"><path transform="translate(10.5,7)" d="M5.851280289976414,0A5.851280289976414,5.851280289976414,0,1,1,-5.851280289976414,0A5.851280289976414,5.851280289976414,0,1,1,5.851280289976414,0" style="fill: none; stroke: #888; stroke-width: 1.5; opacity: 0.7;"></path></g><g class="mark-text role-legend-label" style="pointer-events: none;"><text text-anchor="start" transform="translate(25,10)" style="font-family: sans-serif; font-size: 10px; fill: #000; opacity: 1;">2,000</text></g></g><path class="foreground" d="" style="pointer-events: none; display: none; fill: none;"></path></g><g transform="translate(0,32)"><path class="background" d="M0,0h52v16.666325526223304h-52Z" style="pointer-events: none; fill: none; opacity: 1;"></path><g><g class="mark-symbol role-legend-symbol" style="pointer-events: none;"><path transform="translate(10.5,8)" d="M7.166325526223303,0A7.166325526223303,7.166325526223303,0,1,1,-7.166325526223303,0A7.166325526223303,7.166325526223303,0,1,1,7.166325526223303,0" style="fill: none; stroke: #888; stroke-width: 1.5; opacity: 0.7;"></path></g><g class="mark-text role-legend-label" style="pointer-events: none;"><text text-anchor="start" transform="translate(25,11)" style="font-family: sans-serif; font-size: 10px; fill: #000; opacity: 1;">3,000</text></g></g><path class="foreground" d="" style="pointer-events: none; display: none; fill: none;"></path></g><g transform="translate(0,52)"><path class="background" d="M0,0h52v19.274959943331027h-52Z" style="pointer-events: none; fill: none; opacity: 1;"></path><g><g class="mark-symbol role-legend-symbol" style="pointer-events: none;"><path transform="translate(10.5,9.5)" d="M8.274959943331021,0A8.274959943331021,8.274959943331021,0,1,1,-8.274959943331021,0A8.274959943331021,8.274959943331021,0,1,1,8.274959943331021,0" style="fill: none; stroke: #888; stroke-width: 1.5; opacity: 0.7;"></path></g><g class="mark-text role-legend-label" style="pointer-events: none;"><text text-anchor="start" transform="translate(25,12.5)" style="font-family: sans-serif; font-size: 10px; fill: #000; opacity: 1;">4,000</text></g></g><path class="foreground" d="" style="pointer-events: none; display: none; fill: none;"></path></g><g transform="translate(0,75)"><path class="background" d="M0,0h52v21.251686472187984h-52Z" style="pointer-events: none; fill: none; opacity: 1;"></path><g><g class="mark-symbol role-legend-symbol" style="pointer-events: none;"><path transform="translate(10.5,10.5)" d="M9.251686472187984,0A9.251686472187984,9.251686472187984,0,1,1,-9.251686472187984,0A9.251686472187984,9.251686472187984,0,1,1,9.251686472187984,0" style="fill: none; stroke: #888; stroke-width: 1.5; opacity: 0.7;"></path></g><g class="mark-text role-legend-label" style="pointer-events: none;"><text text-anchor="start" transform="translate(25,13.5)" style="font-family: sans-serif; font-size: 10px; fill: #000; opacity: 1;">5,000</text></g></g><path class="foreground" d="" style="pointer-events: none; display: none; fill: none;"></path></g></g></g><path class="foreground" d="" style="pointer-events: none; display: none; fill: none;"></path></g></g><g class="mark-text role-legend-title" style="pointer-events: none;"><text text-anchor="start" transform="translate(0,9)" style="font-family: sans-serif; font-size: 11px; font-weight: bold; fill: #000; opacity: 1;"># of tested</text></g></g><path class="foreground" d="" style="pointer-events: none; display: none; fill: none;"></path></g></g></g><path class="foreground" d="" style="display: none; fill: none;"></path></g></g></g></svg>
